<svg id="Layer_1" data-name="Layer 1" xmlns="http://www.w3.org/2000/svg" viewBox="0 0 120.32 98.3">
  <path d="M106.94,33.46,94,42.89,67.21,62.47a4.2,4.2,0,0,0-.91,5.87l3.08,4.22a4.2,4.2,0,0,0,5.87.92l26.89-19.63L115,44.48a4.22,4.22,0,0,0,.92-5.88l-3.09-4.22A4.21,4.21,0,0,0,106.94,33.46Z" fill="none" stroke="#000" stroke-miterlimit="10" stroke-width="4"/>
  <line x1="101.47" y1="52.82" x2="94.02" y2="42.89" fill="none" stroke="#000" stroke-miterlimit="10" stroke-width="4"/>
  <line x1="101.57" y1="37.38" x2="109.8" y2="48.26" fill="none" stroke="#000" stroke-miterlimit="10" stroke-width="4"/>
  <polyline points="66.31 63.36 57.28 78.24 73.73 74.18" fill="none" stroke="#000" stroke-linejoin="round" stroke-width="4"/>
  <path d="M106.76,50.48v34.6A10.43,10.43,0,0,1,96.33,95.51H13A10.43,10.43,0,0,1,2.6,85.08V13.23A10.43,10.43,0,0,1,13,2.8H96.33a10.43,10.43,0,0,1,10.43,10.43V33.46" fill="none" stroke="#000" stroke-miterlimit="10" stroke-width="4"/>
  <circle cx="22.84" cy="21.63" r="8.66" fill="none" stroke="#000" stroke-miterlimit="10" stroke-width="4"/>
  <polyline points="2.6 76.89 31.92 37.63 61.8 70.8" fill="none" stroke="#000" stroke-linecap="round" stroke-linejoin="round" stroke-width="4"/>
  <line x1="96.58" y1="57.91" x2="106.76" y2="70.8" fill="none" stroke="#000" stroke-linejoin="round" stroke-width="4"/>
  <polyline points="49.6 57.26 72.6 27.51 88.13 47.2" fill="none" stroke="#000" stroke-linejoin="round" stroke-width="4"/>
</svg>
