<svg id="Layer_1" data-name="Layer 1" xmlns="http://www.w3.org/2000/svg" viewBox="0 0 110.52 98.3">
  <path d="M42.72,67.84V21.77A4.83,4.83,0,0,1,47.58,17h0a4.83,4.83,0,0,1,4.86,4.79V58.4" fill="none" stroke="#000" stroke-linecap="round" stroke-miterlimit="10" stroke-width="4"/>
  <path d="M52.44,58.4l.3-15.92a4.83,4.83,0,0,1,4.86-4.79h0a4.82,4.82,0,0,1,4.86,4.79V58.4" fill="none" stroke="#000" stroke-linecap="round" stroke-miterlimit="10" stroke-width="4"/>
  <path d="M62.46,58.4l.31-15.92a4.82,4.82,0,0,1,4.86-4.79h0a4.82,4.82,0,0,1,4.85,4.79V58.4" fill="none" stroke="#000" stroke-linecap="round" stroke-miterlimit="10" stroke-width="4"/>
  <path d="M42.72,67.84,35.1,56.19c-1.52-2.86-3.91-3.52-6.37-2.44h0a4.82,4.82,0,0,0-2.53,6.33l11,25.74S42,95.1,52.44,95.1,68.31,96.56,74,92.47c2.57-1.85,7.5-5.63,8.46-13.35V45.83A4.83,4.83,0,0,0,77.58,41h0a4.82,4.82,0,0,0-4.85,4.79L72.48,58.4" fill="none" stroke="#000" stroke-linecap="round" stroke-miterlimit="10" stroke-width="4"/>
  <line x1="28.6" y1="16.98" x2="35.46" y2="16.98" fill="none" stroke="#000" stroke-linecap="round" stroke-miterlimit="10" stroke-width="3.5"/>
  <line x1="47.58" y1="2.95" x2="47.58" y2="9.81" fill="none" stroke="#000" stroke-linecap="round" stroke-miterlimit="10" stroke-width="3.5"/>
  <line x1="35.46" y1="6.42" x2="38.97" y2="9.93" fill="none" stroke="#000" stroke-linecap="round" stroke-miterlimit="10" stroke-width="3.5"/>
  <line x1="56.07" y1="9.93" x2="59.58" y2="6.42" fill="none" stroke="#000" stroke-linecap="round" stroke-miterlimit="10" stroke-width="3.5"/>
  <line x1="59.58" y1="16.98" x2="66.44" y2="16.98" fill="none" stroke="#000" stroke-linecap="round" stroke-miterlimit="10" stroke-width="3.5"/>
</svg>
